<?xml version="1.0" encoding="iso-8859-1"?>
<!-- Generator: Adobe Illustrator 19.0.0, SVG Export Plug-In . SVG Version: 6.00 Build 0)  -->
<svg version="1.1" id="Capa_1" xmlns="http://www.w3.org/2000/svg" xmlns:xlink="http://www.w3.org/1999/xlink" x="0px" y="0px"
	 viewBox="0 0 511.999 511.999" style="enable-background:new 0 0 511.999 511.999;" xml:space="preserve">
<path style="fill:#EBC9A0;" d="M23.533,167.823h96.194V7.5H55.598c-17.709,0-32.065,14.356-32.065,32.065
	C23.533,39.565,23.533,167.823,23.533,167.823z"/>
<path style="fill:#FAEBC8;" d="M424.34,39.565c0-17.709-14.356-32.065-32.065-32.065H55.598c17.709,0,32.065,14.356,32.065,32.065
	V167.82l16.032,24.051l-16.032,24.048v256.516c0,17.709,14.356,32.065,32.065,32.065h304.613V392.277l-16.032-24.051l16.032-24.045
	V39.565H424.34z"/>
<path style="fill:#F5DCB4;" d="M151.791,440.371v32.065c0,17.708-14.356,32.065-32.065,32.065h336.677
	c17.709,0,32.065-14.356,32.065-32.065v-32.065H151.791z"/>
<path d="M488.469,432.871H151.792c-4.142,0-7.5,3.358-7.5,7.5v32.064c0,13.545-11.02,24.564-24.565,24.564
	s-24.564-11.02-24.564-24.564V367.709h8.532c4.142,0,7.5-3.358,7.5-7.5s-3.358-7.5-7.5-7.5h-8.532v-17.064h24.564
	c4.142,0,7.5-3.358,7.5-7.5s-3.358-7.5-7.5-7.5H95.162V218.19l14.772-22.159c1.68-2.519,1.68-5.801,0-8.32L95.162,165.55V39.564
	c0-9.276-3.218-17.811-8.584-24.564h305.697c13.545,0,24.564,11.02,24.564,24.564v24.564h-24.564c-4.142,0-7.5,3.358-7.5,7.5
	s3.358,7.5,7.5,7.5h24.564v17.064h-8.532c-4.142,0-7.5,3.358-7.5,7.5s3.358,7.5,7.5,7.5h8.532V341.91l-14.772,22.155
	c-1.68,2.519-1.68,5.801,0,8.32l14.773,22.162v13.759c0,4.142,3.358,7.5,7.5,7.5s7.5-3.358,7.5-7.5v-16.03
	c0-1.48-0.438-2.928-1.259-4.16l-13.259-19.891l13.258-19.885c0.821-1.232,1.26-2.68,1.26-4.161V39.564
	C431.84,17.749,414.091,0,392.275,0H55.598C33.782,0,16.033,17.749,16.033,39.564v128.258c0,4.142,3.358,7.5,7.5,7.5h32.064
	c4.142,0,7.5-3.358,7.5-7.5s-3.358-7.5-7.5-7.5H31.033V39.564C31.033,26.02,42.053,15,55.598,15s24.564,11.02,24.564,24.564V167.82
	c0,1.48,0.438,2.928,1.259,4.16l13.259,19.891l-13.259,19.888c-0.821,1.232-1.26,2.68-1.26,4.16v256.516
	c0,21.816,17.749,39.564,39.564,39.564l0,0h336.677c21.816,0,39.564-17.749,39.564-39.564v-32.064
	C495.969,436.229,492.611,432.871,488.469,432.871z M480.969,472.436c0,13.545-11.02,24.564-24.564,24.564H150.722
	c5.362-6.752,8.57-15.292,8.57-24.564v-24.564h321.677V472.436z"/>
<path d="M360.21,208.419h-32.063c-4.142,0-7.5,3.358-7.5,7.5s3.358,7.5,7.5,7.5h32.063c4.142,0,7.5-3.358,7.5-7.5
	S364.353,208.419,360.21,208.419z"/>
<path d="M303.584,215.919c0-4.142-3.358-7.5-7.5-7.5h-96.196c-4.142,0-7.5,3.358-7.5,7.5s3.358,7.5,7.5,7.5h96.196
	C300.226,223.419,303.584,220.062,303.584,215.919z"/>
<path d="M151.792,223.419h16.03c4.142,0,7.5-3.358,7.5-7.5s-3.358-7.5-7.5-7.5h-16.03c-4.142,0-7.5,3.358-7.5,7.5
	S147.649,223.419,151.792,223.419z"/>
<path d="M360.21,176.355h-96.193c-4.142,0-7.5,3.358-7.5,7.5s3.358,7.5,7.5,7.5h96.193c4.142,0,7.5-3.358,7.5-7.5
	S364.353,176.355,360.21,176.355z"/>
<path d="M151.792,191.355h80.161c4.142,0,7.5-3.358,7.5-7.5s-3.358-7.5-7.5-7.5h-80.161c-4.142,0-7.5,3.358-7.5,7.5
	S147.649,191.355,151.792,191.355z"/>
<path d="M360.21,144.291h-16.032c-4.142,0-7.5,3.358-7.5,7.5s3.358,7.5,7.5,7.5h16.032c4.142,0,7.5-3.358,7.5-7.5
	S364.353,144.291,360.21,144.291z"/>
<path d="M208.421,151.791c0,4.142,3.358,7.5,7.5,7.5h96.193c4.142,0,7.5-3.358,7.5-7.5s-3.358-7.5-7.5-7.5h-96.193
	C211.779,144.291,208.421,147.648,208.421,151.791z"/>
<path d="M151.792,159.291h32.066c4.142,0,7.5-3.358,7.5-7.5s-3.358-7.5-7.5-7.5h-32.066c-4.142,0-7.5,3.358-7.5,7.5
	S147.649,159.291,151.792,159.291z"/>
<path d="M296.082,96.193h-80.161c-4.142,0-7.5,3.358-7.5,7.5s3.358,7.5,7.5,7.5h80.161c4.142,0,7.5-3.358,7.5-7.5
	S300.224,96.193,296.082,96.193z"/>
<path d="M367.71,247.984c0-4.142-3.358-7.5-7.5-7.5h-64.127c-4.142,0-7.5,3.358-7.5,7.5s3.358,7.5,7.5,7.5h64.127
	C364.353,255.484,367.71,252.126,367.71,247.984z"/>
<path d="M231.956,240.484c-4.142,0-7.5,3.358-7.5,7.5s3.358,7.5,7.5,7.5h32.064c4.142,0,7.5-3.358,7.5-7.5s-3.358-7.5-7.5-7.5
	H231.956z"/>
<path d="M151.792,255.484h48.093c4.142,0,7.5-3.358,7.5-7.5s-3.358-7.5-7.5-7.5h-48.093c-4.142,0-7.5,3.358-7.5,7.5
	S147.649,255.484,151.792,255.484z"/>
<path d="M319.614,328.145c0-4.142-3.358-7.5-7.5-7.5H199.888c-4.142,0-7.5,3.358-7.5,7.5s3.358,7.5,7.5,7.5h112.226
	C316.256,335.645,319.614,332.287,319.614,328.145z"/>
<path d="M215.92,352.709c-4.142,0-7.5,3.358-7.5,7.5s3.358,7.5,7.5,7.5h80.161c4.142,0,7.5-3.358,7.5-7.5s-3.358-7.5-7.5-7.5H215.92
	z"/>
<g>
</g>
<g>
</g>
<g>
</g>
<g>
</g>
<g>
</g>
<g>
</g>
<g>
</g>
<g>
</g>
<g>
</g>
<g>
</g>
<g>
</g>
<g>
</g>
<g>
</g>
<g>
</g>
<g>
</g>
</svg>
