<svg height="512" viewBox="0 0 60 60" width="512" xmlns="http://www.w3.org/2000/svg"><g id="Page-1" fill="none" fill-rule="evenodd"><g id="037---NPC" fill-rule="nonzero" transform="translate(0 -1)"><g id="Icons" transform="translate(1 2)"><path id="Shape" d="m56 18c0 1.6568542-1.3431458 3-3 3-.1882886.0003363-.3760566-.0197817-.56-.06-1.2330801 4.1862612-5.0759114 7.06041-9.44 7.06041s-8.2069199-2.8741488-9.44-7.06041c-.1839434.0402183-.3717114.0603363-.56.06-1.6568542 0-3-1.3431458-3-3s1.3431458-3 3-3v-4.15c-3.76-3.28-3-10.85-3-10.85 3 6 16 1 21 4s2 11 2 11c1.6568542 0 3 1.3431458 3 3z" fill="#ffe0b2"/><path id="Shape" d="m53 15s3-8-2-11c-1.745-1.047-4.465-1.119-7.393-1.025 1.5252308-.01454657 3.0317026.3369521 4.393 1.025 5 3 2 11 2 11 1.6568542 0 3 1.3431458 3 3s-1.3431458 3-3 3c-.1882886.0003363-.3760566-.0197817-.56-.06-1.1431614 3.6131604-4.2057225 6.2873085-7.94 6.933 4.8564751.698753 9.4985102-2.2430412 10.94-6.933.1839434.0402183.3717114.0603363.56.06 1.6568542 0 3-1.3431458 3-3s-1.3431458-3-3-3z" fill="#dfc49c"/><path id="Shape" d="m48 33c0 2.7614237-2.2385763 5-5 5s-5-2.2385763-5-5c2.69-2.02 2.22-3.93 1.61-5.63 2.181952.8399727 4.598048.8399727 6.78 0-.61 1.7-1.08 3.61 1.61 5.63z" fill="#ffe0b2"/><path id="Shape" d="m57.99 39.79c-.1127076-1.0153474-.9684282-1.7850659-1.99-1.79h-13c2.7614237 0 5-2.2385763 5-5h3c3.7851911-.0052403 6.8853863 3.0062512 6.99 6.79z" fill="#ffdc00"/><path id="Shape" d="m51 33-3-.0000068c3.0943907-.0016468 5.8209523 2.0331007 6.7 5.0000068h1.3c1.0215718.0049341 1.8772924.7746526 1.99 1.79-.1046137-3.7837488-3.2048089-6.7952403-6.99-6.79z" fill="#fec108"/><path id="Shape" d="m43 38h-14.71c.8846678-2.9672665 3.6136623-5.0007944 6.71-5h3c0 1.3260824.5267842 2.597852 1.4644661 3.5355339s2.2094515 1.4644661 3.5355339 1.4644661z" fill="#ffdc00"/><path id="Shape" d="m58 40v16c-.0032948 1.1032019-.8967981 1.9967052-2 2h-54c-1.10320187-.0032948-1.9967052-.8967981-2-2v-18h56c1.1027482.0043847 1.9956153.8972518 2 2z" fill="#02a9f4"/><path id="Shape" d="m57.99 39.79c-.1127076-1.0153474-.9684282-1.7850659-1.99-1.79h-3c1.1027482.0043847 1.9956153.8972518 2 2v16c-.0032948 1.1032019-.8967981 1.9967052-2 2h3c1.1032019-.0032948 1.9967052-.8967981 2-2 0-17.223.006-16.1-.01-16.21z" fill="#0377bc"/><path id="Shape" d="m3 30h16c1.6568542 0 3 1.3431458 3 3v5h-22v-5c0-1.6568542 1.34314575-3 3-3z" fill="#3f51b5"/><path id="Shape" d="m19 30h-3c1.6568542 0 3 1.3431458 3 3v5h3v-5c0-1.6568542-1.3431458-3-3-3z" fill="#283593"/><path id="Shape" d="m40 20h6v1c0 1.6568542-1.3431458 3-3 3s-3-1.3431458-3-3z" fill="#ef314c"/><path id="Shape" d="m53.85 10.99c-2.72-3.94-8.02-1.82-10.37-.48-5.16 2.95-8.51 2.06-10.48.34-3.76-3.28-3-10.85-3-10.85 3 6 16 1 21 4 2.63 1.58 3.05 4.54 2.85 6.99z" fill="#a0522d"/><path id="Shape" d="m51 4c-1.745-1.047-4.465-1.119-7.393-1.025 1.5252308-.01454657 3.0317026.3369521 4.393 1.025 1.6911872 1.06963 2.7502179 2.90069939 2.834 4.9 1.234954.28683164 2.3137676 1.03441798 3.016 2.09.2-2.45-.22-5.41-2.85-6.99z" fill="#783e22"/></g><g id="Icons_copy" fill="#000"><path id="Shape" d="m52 34h-2.635c-1.3121793-.8125299-1.8148607-2.4744209-1.173-3.878 2.6997046-1.1865011 4.8263278-3.3845742 5.923-6.122 1.935217-.0538255 3.5541199-1.4858245 3.8437664-3.3999997.2896466-1.9141752-.8331108-3.7610329-2.6657664-4.3850003.681-2.49 1.708-8.38-2.778-11.071-2.36-1.416-5.955-1.26-9.759-1.1-4.624.2-9.412.406-10.861-2.494-.1991663-.39890987-.6383635-.61777377-1.0767753-.5365864s-.7701114.44280995-.8132247.8865864c-.037.37-.716 7.717 3 11.4v2.826c-1.9331587.4938934-3.206724 2.336884-2.9851138 4.3197915.2216101 1.9829074 1.8706177 3.4992707 3.8651138 3.5542085 1.0964543 2.7378026 3.2231053 4.9362635 5.923 6.123.641266 1.4033165.138655 3.0645466-1.173 3.877h-2.635c-3.2572272-.0110506-6.1893363 1.9725166-7.391 5h-4.609v-4c0-2.209139-1.790861-4-4-4h-16c-2.209139 0-4 1.790861-4 4v23c0 1.6568542 1.34314575 3 3 3h54c1.6568542 0 3-1.3431458 3-3v-16c.0009935-.0941461-.0030121-.1882786-.012-.282-.1211833-4.316683-3.6697024-7.7452597-7.988-7.718zm0 2c2.1591029-.0121896 4.1561304 1.1437224 5.221 3.022-.074 0-.145-.022-.221-.022h-8.553c.7657933-.8395381 1.2758052-1.8803787 1.47-3zm-16.491-13.375c-.1356088-.4085888-.5174953-.6845299-.948-.685-.0736524.0000697-.1470806.0081167-.219.024-.1123507.0244074-.2270297.0364788-.342.036-1.1045695 0-2-.8954305-2-2s.8954305-2 2-2c.5522847 0 1-.4477153 1-1v-2.319c.2231833.1011698.4514937.1906248.684.268.3394023.1128959.7132522.0361471.9807241-.201336.2674719-.237483.3879304-.599621.316-.95s-.3253218-.6357681-.6647241-.748664c-.5919125-.1960913-1.1398337-.5058893-1.613-.912-.0285212-.0290382-.0592827-.0557874-.092-.08-2.011-1.805-2.543-5.157-2.648-7.466 2.623 1.809 6.8 1.63 10.879 1.454 3.345-.145 6.8-.293 8.643.812 4.222 2.534 1.605 9.721 1.578 9.793-.1147341.3070775-.0716779.6508892.1152372.9201906.1869151.2693013.4939512.4298915.8217628.4298094 1.1045695 0 2 .8954305 2 2s-.8954305 2-2 2c-.1149703.0004788-.2296493-.0115926-.342-.036-.500997-.1118544-1.0053152.1737964-1.167.661-1.0972365 3.7771887-4.5576703 6.3754471-8.491 6.3754471s-7.3937635-2.5982584-8.491-6.3754471zm6.526 8.182c1.2973633.2573249 2.6326367.2573249 3.93 0-.2448668 1.7932239.5211604 3.5749777 1.991 4.631-.2137527 2.0239995-1.9207447 3.5602106-3.956 3.5602106s-3.7422473-1.5362111-3.956-3.5602106c1.4698396-1.0560223 2.2358668-2.8377761 1.991-4.631zm-6.035 5.193h2.083c.1941948 1.1196213.7042067 2.1604619 1.47 3h-8.734c1.0605583-1.8602199 3.0397006-3.0062201 5.181-3zm-34-1c0-1.1045695.8954305-2 2-2h16c1.1045695 0 2 .8954305 2 2v4h-20zm56 23c0 .5522847-.4477153 1-1 1h-54c-.55228475 0-1-.4477153-1-1v-17h55c.5522847 0 1 .4477153 1 1z"/><path id="Shape" d="m48 23v-1c0-.5522847-.4477153-1-1-1h-6c-.5522847 0-1 .4477153-1 1v1c0 2.209139 1.790861 4 4 4s4-1.790861 4-4zm-6 0h4c0 1.1045695-.8954305 2-2 2s-2-.8954305-2-2z"/><path id="Shape" d="m7 35h-2c-.55228475 0-1 .4477153-1 1s.44771525 1 1 1h2c.55228475 0 1-.4477153 1-1s-.44771525-1-1-1z"/><path id="Shape" d="m19 35h-8c-.5522847 0-1 .4477153-1 1s.4477153 1 1 1h8c.5522847 0 1-.4477153 1-1s-.4477153-1-1-1z"/><path id="Shape" d="m53.707 51.293c-.3923789-.3789722-1.0160848-.3735524-1.4018186.0121814s-.3911536 1.0094397-.0121814 1.4018186l1.293 1.293-1.293 1.293c-.2599566.2510745-.3642126.6228779-.2726972.9725073.0915155.3496295.3645604.6226744.7141899.7141899.3496294.0915154.7214328-.0127406.9725073-.2726972l2-2c.3903819-.3904999.3903819-1.0235001 0-1.414z"/><path id="Shape" d="m6 46h9c.5522847 0 1-.4477153 1-1s-.4477153-1-1-1h-9c-.55228475 0-1 .4477153-1 1s.44771525 1 1 1z"/><path id="Shape" d="m19 46h35c.5522847 0 1-.4477153 1-1s-.4477153-1-1-1h-35c-.5522847 0-1 .4477153-1 1s.4477153 1 1 1z"/><path id="Shape" d="m6 51h22c.5522847 0 1-.4477153 1-1s-.4477153-1-1-1h-22c-.55228475 0-1 .4477153-1 1s.44771525 1 1 1z"/><path id="Shape" d="m49 49h-17c-.5522847 0-1 .4477153-1 1s.4477153 1 1 1h17c.5522847 0 1-.4477153 1-1s-.4477153-1-1-1z"/><path id="Shape" d="m10 54h-4c-.55228475 0-1 .4477153-1 1s.44771525 1 1 1h4c.5522847 0 1-.4477153 1-1s-.4477153-1-1-1z"/><path id="Shape" d="m47 54h-33c-.5522847 0-1 .4477153-1 1s.4477153 1 1 1h33c.5522847 0 1-.4477153 1-1s-.4477153-1-1-1z"/></g></g></g></svg>